<svg xmlns="http://www.w3.org/2000/svg" viewBox="0 0 1220 760" role="img" aria-labelledby="title desc">
  <title id="title">NIELIT logo</title>
  <desc id="desc">NIELIT logo reusable asset.</desc>
  <g transform="translate(120 155) scale(0.9)">
    <path d="M147 143c33-59 94-86 174-88" fill="none" stroke="#b6cf4c" stroke-linecap="round" stroke-width="13"/>
    <path d="M123 182c28-52 81-79 151-79" fill="none" stroke="#b6cf4c" stroke-linecap="round" stroke-width="13"/>
    <path d="M111 340c-40-46-42-122 6-172 39-42 93-57 160-44-71 7-125 40-154 99-19 37-23 78-12 117z" fill="#e35a79"/>
    <path d="M314 101c84 45 127 143 111 258-7 47-25 94-53 141 10-98-13-184-68-257-37-49-82-86-134-111 55-8 100-1 144 21z" fill="#2f79c0"/>
    <circle cx="184" cy="220" r="18" fill="#e35a79"/>
    <circle cx="311" cy="149" r="19" fill="#2f79c0"/>
    <defs>
      <linearGradient id="globeFill" x1="0%" x2="100%" y1="0%" y2="100%">
        <stop offset="0%" stop-color="#28a4d3"/>
        <stop offset="55%" stop-color="#2f79c0"/>
        <stop offset="100%" stop-color="#243f7c"/>
      </linearGradient>
      <linearGradient id="globeHighlight" x1="0%" x2="100%" y1="0%" y2="100%">
        <stop offset="0%" stop-color="#85daf7" stop-opacity="0.95"/>
        <stop offset="100%" stop-color="#85daf7" stop-opacity="0"/>
      </linearGradient>
    </defs>
    <circle cx="245" cy="287" r="144" fill="url(#globeFill)"/>
    <ellipse cx="221" cy="230" rx="108" ry="60" fill="url(#globeHighlight)"/>
    <path d="M98 401c107-96 233-156 391-182" fill="none" stroke="#ffffff" stroke-linecap="round" stroke-width="5"/>
    <path d="M131 443c92-87 212-144 348-165" fill="none" stroke="#ffffff" stroke-linecap="round" stroke-width="5"/>
    <path d="M179 455c124-111 215-218 262-327" fill="none" stroke="#ffffff" stroke-linecap="round" stroke-width="5"/>
    <path d="M415 421c9-112-18-215-81-307" fill="none" stroke="#ffffff" stroke-linecap="round" stroke-width="5"/>
    <text x="424" y="262" fill="#2b5199" font-family="Nirmala UI, Mangal, Arial Unicode MS, sans-serif" font-size="92" font-weight="700">रा.इ.सू.प्रौ.सं</text>
    <text x="420" y="430" fill="#2b5199" font-family="Aptos, Segoe UI, Arial, sans-serif" font-size="166" font-weight="800" letter-spacing="2">NIELIT</text>
  </g>
</svg>
